<svg xmlns="http://www.w3.org/2000/svg" viewBox="0 0 64 64">
  <defs>
    <linearGradient id="shield" x1="0" y1="0" x2="0" y2="1">
      <stop offset="0%" stop-color="#3b7b57"/>
      <stop offset="100%" stop-color="#1d4732"/>
    </linearGradient>
    <linearGradient id="scroll" x1="0" y1="0" x2="1" y2="1">
      <stop offset="0%" stop-color="#f4ecd1"/>
      <stop offset="100%" stop-color="#dacfa7"/>
    </linearGradient>
  </defs>
  <path d="M32 4l22 10v16c0 16-9.6 24.9-22 30C19.6 54.9 10 46 10 30V14z" fill="url(#shield)" stroke="#9fdbb8" stroke-width="2"/>
  <path d="M42 17l3 2-21 28-3-2z" fill="#f0f7f2" opacity="0.9"/>
  <path d="M39 15l5 4 2-2-5-4z" fill="#bfd6c6"/>
  <rect x="17" y="19" width="25" height="20" rx="3" fill="url(#scroll)" stroke="#9d8d62" stroke-width="1.3"/>
  <path d="M21 24h17M21 28h13M21 32h15" fill="none" stroke="#8b7c53" stroke-width="1.6" stroke-linecap="round"/>
  <circle cx="44" cy="44" r="10" fill="#2e8f5c" stroke="#d9ffe9" stroke-width="1.8"/>
  <path d="M39.5 44l3.3 3.5 6-6.6" fill="none" stroke="#ffffff" stroke-width="2.8" stroke-linecap="round" stroke-linejoin="round"/>
</svg>